<svg id="Group_8" data-name="Group 8" xmlns="http://www.w3.org/2000/svg" xmlns:xlink="http://www.w3.org/1999/xlink" width="195.24" height="73.191" viewBox="0 0 195.24 73.191">
  <defs>
    <clipPath id="clip-path">
      <rect id="Rectangle_2" data-name="Rectangle 2" width="195.24" height="73.191" fill="none"/>
    </clipPath>
  </defs>
  <g id="Group_1" data-name="Group 1" clip-path="url(#clip-path)">
    <path id="Path_1" data-name="Path 1" d="M0,88.356H1.068V86.541A7.207,7.207,0,0,1,1.539,83.6a2.637,2.637,0,0,1,1.4-1.372,7.253,7.253,0,0,1,2.72-.415H7.987v16.9c0,.387-.159.42-.336.42h-3.3v1.1H15.623v-1.1h-3.3c-.177,0-.336-.033-.336-.42v-16.9h2.323a7.394,7.394,0,0,1,2.762.415A2.541,2.541,0,0,1,18.451,83.6a7.459,7.459,0,0,1,.453,2.944v1.815h1.059V80.71H0v7.646Z" transform="translate(0 -43.058)" fill="#967444"/>
    <path id="Path_2" data-name="Path 2" d="M69.831,98.177a16.97,16.97,0,0,1-1.563-2.808,16.475,16.475,0,0,0-1.763-3.2,4.518,4.518,0,0,0-1.749-1.418A6.835,6.835,0,0,0,68.5,89.392a4.731,4.731,0,0,0,1.4-3.741,4.558,4.558,0,0,0-1.88-3.9A9.677,9.677,0,0,0,62.46,80.44l-6.489.126h-6.4v1.106h3.051c.177,0,.336.033.336.42V98.573c0,.387-.159.42-.336.42H49.57v1.1H60.351v-1.1H57.3c-.177,0-.336-.033-.336-.42V90.9h1.5c1,0,1.721.014,2.137.042a3.013,3.013,0,0,1,1.087.275,2.306,2.306,0,0,1,1.236,1.208A25.854,25.854,0,0,1,64.064,95.3,17.508,17.508,0,0,0,65.6,98.872a2.554,2.554,0,0,0,2.291,1.274c1.5,0,2.967-.014,4.348-.042h.238V99h-.942a1.969,1.969,0,0,1-1.689-.816ZM65.777,85.651a3.864,3.864,0,0,1-1.171,3.2,6.783,6.783,0,0,1-4.091.942H56.95V82.087c0-.387.159-.42.345-.42.742-.028,2.02-.042,3.8-.042a5.251,5.251,0,0,1,3.541,1.017,3.819,3.819,0,0,1,1.138,3.009Z" transform="translate(-26.445 -42.914)" fill="#967444"/>
    <path id="Path_3" data-name="Path 3" d="M120.472,98.9a1.684,1.684,0,0,1-.508-.732L112.4,80.855l-.061-.145h-4.348l1.115,2.277-5.5,13.142a10.285,10.285,0,0,1-.905,1.619,3.572,3.572,0,0,1-1.106,1.008,3.155,3.155,0,0,1-1.614.383H99.74v1.1h8.215v-1.1h-.243a20.616,20.616,0,0,1-2.491-.121,2.215,2.215,0,0,1-1.176-.378c-.107-.093-.21-.243-.084-.574l1.344-3.168h8.938l1.712,3.965c.042.14.028.21.014.229-.028.037-.1.042-.154.042h-2.888v1.1h10.529v-1.1h-2.141a1.355,1.355,0,0,1-.844-.238Zm-6.718-5.146H105.8l3.947-9.293Z" transform="translate(-53.21 -43.058)" fill="#967444"/>
    <path id="Path_4" data-name="Path 4" d="M151.24,81.806h3.34c.177,0,.336.033.336.42V98.707c0,.387-.159.42-.336.42h-3.34v1.1H162.6v-1.1h-3.34c-.177,0-.341-.033-.341-.42V82.225c0-.387.159-.42.341-.42h3.34V80.7H151.24Z" transform="translate(-80.685 -43.053)" fill="#967444"/>
    <path id="Path_5" data-name="Path 5" d="M201.277,93.818a12.143,12.143,0,0,1-.4,3.224,2.9,2.9,0,0,1-1.064,1.591,3.615,3.615,0,0,1-2.057.494H191.14c-.177,0-.336-.033-.336-.42V82.225c0-.387.159-.42.336-.42h3.051V80.7H183.41v1.106h3.051c.177,0,.336.033.336.42V98.707c0,.387-.159.42-.336.42H183.41v1.1h18.926V89.685h-1.059v4.133Z" transform="translate(-97.847 -43.053)" fill="#967444"/>
    <path id="Path_6" data-name="Path 6" d="M243.3,88.768c-1.036-.471-2.412-1-4.1-1.581-1.306-.434-2.356-.821-3.126-1.152a6.531,6.531,0,0,1-1.875-1.176,2.013,2.013,0,0,1-.709-1.539,2.161,2.161,0,0,1,1.32-2,7.326,7.326,0,0,1,3.443-.737,8.42,8.42,0,0,1,4.04,1.087,8.56,8.56,0,0,1,3.28,3.308l.07.121h.919V79.564h-.984l-.033.205a3.747,3.747,0,0,1-.387,1.106,1.368,1.368,0,0,1-.5.606,12.491,12.491,0,0,0-3.182-1.535,11.416,11.416,0,0,0-3.252-.467,10.877,10.877,0,0,0-3.7.616,6.541,6.541,0,0,0-2.79,1.829,4.535,4.535,0,0,0,.065,5.934,8.386,8.386,0,0,0,2.659,1.875,37.858,37.858,0,0,0,4.017,1.479c1.339.439,2.426.835,3.228,1.171a6.527,6.527,0,0,1,1.955,1.236,2.192,2.192,0,0,1,.732,1.67,3.05,3.05,0,0,1-1.288,2.64,5.4,5.4,0,0,1-3.27.966,8.732,8.732,0,0,1-6.4-2.864,7.945,7.945,0,0,1-1.805-3.378l-.047-.177H230.58V99.75h.975l.042-.191a14.982,14.982,0,0,1,.606-2.109c.084-.177.168-.355.252-.527a7.383,7.383,0,0,0,.779.746,9.838,9.838,0,0,0,3.182,1.763,10.6,10.6,0,0,0,3.3.569,9.364,9.364,0,0,0,3.69-.723,6.47,6.47,0,0,0,2.748-2.151,5.469,5.469,0,0,0,1.04-3.289,4.446,4.446,0,0,0-1.157-3.1,8.343,8.343,0,0,0-2.724-1.964Z" transform="translate(-123.012 -42.402)" fill="#967444"/>
    <path id="Path_7" data-name="Path 7" d="M290.32,81.965a8.662,8.662,0,0,0-5.556-1.525l-6.573.126h-6.4v1.106h3.051c.177,0,.336.033.336.42V98.573c0,.387-.159.42-.336.42H271.79v1.1h10.781v-1.1H279.52c-.177,0-.336-.033-.336-.42v-6.55h4.637c2.9,0,5.043-.453,6.359-1.348a5.043,5.043,0,0,0,2.029-4.488,5.173,5.173,0,0,0-1.889-4.222m-2.151,4.222a4.733,4.733,0,0,1-1.227,3.555,5.747,5.747,0,0,1-4.031,1.176h-3.727V82.091c0-.387.159-.42.341-.42l3.965-.042a4.119,4.119,0,0,1,4.679,4.562Z" transform="translate(-144.997 -42.914)" fill="#967444"/>
    <path id="Path_8" data-name="Path 8" d="M332.416,81.795h1.647a1.367,1.367,0,0,1,1.059.536,2.581,2.581,0,0,1,.481,1.707V93.77a5.682,5.682,0,0,1-1.661,4.3,6.113,6.113,0,0,1-4.38,1.591,5.517,5.517,0,0,1-3.947-1.53,5.692,5.692,0,0,1-1.6-4.32V82.21c0-.387.159-.42.336-.42H327.4V80.685H316.83V81.79h2.846c.177,0,.336.033.336.42v11.3a6.372,6.372,0,0,0,2.473,5.388,11.066,11.066,0,0,0,6.783,1.852,7.733,7.733,0,0,0,5.416-1.885c1.367-1.255,2.062-3.182,2.062-5.729V84.03a2.519,2.519,0,0,1,.3-1.306,1.841,1.841,0,0,1,.709-.718,1.863,1.863,0,0,1,.858-.219H340.3V80.68h-7.884v1.115Z" transform="translate(-169.025 -43.042)" fill="#967444"/>
    <path id="Path_9" data-name="Path 9" d="M391.345,98.993a1.969,1.969,0,0,1-1.689-.816,16.969,16.969,0,0,1-1.563-2.808,16.335,16.335,0,0,0-1.763-3.2,4.484,4.484,0,0,0-1.749-1.418,6.867,6.867,0,0,0,3.746-1.362,4.731,4.731,0,0,0,1.4-3.741,4.564,4.564,0,0,0-1.88-3.9,9.677,9.677,0,0,0-5.561-1.306l-6.489.126h-6.4v1.106h3.051c.177,0,.336.033.336.42V98.573c0,.387-.159.42-.336.42H369.4v1.1h10.781v-1.1H377.13c-.177,0-.336-.033-.336-.42V90.9h1.5c1,0,1.721.014,2.137.042a3.013,3.013,0,0,1,1.087.275,2.306,2.306,0,0,1,1.236,1.208,25.124,25.124,0,0,1,1.143,2.869,17.508,17.508,0,0,0,1.535,3.573,2.556,2.556,0,0,0,2.3,1.274c1.5,0,2.967-.014,4.348-.042h.238V99h-.942Zm-5.738-13.342a3.864,3.864,0,0,1-1.171,3.2,6.783,6.783,0,0,1-4.091.942H376.78V82.087c0-.387.159-.42.345-.42.742-.028,2.02-.042,3.8-.042a5.251,5.251,0,0,1,3.541,1.017,3.819,3.819,0,0,1,1.138,3.009Z" transform="translate(-197.071 -42.914)" fill="#967444"/>
    <path id="Path_10" data-name="Path 10" d="M40.01,147.582a2.737,2.737,0,0,1,2.808-2.832,2.418,2.418,0,0,1,2.071,1.082l-.564.322a1.845,1.845,0,0,0-1.507-.8,2.226,2.226,0,0,0,0,4.446,1.865,1.865,0,0,0,1.507-.793l.574.313a2.462,2.462,0,0,1-2.081,1.092A2.734,2.734,0,0,1,40.01,147.582Z" transform="translate(-21.345 -77.223)" fill="#967444"/>
    <path id="Path_11" data-name="Path 11" d="M67.829,150.422l-.485-1.222h-2.72l-.485,1.222H63.36l2.2-5.472h.844l2.2,5.472h-.774Zm-1.843-4.777L64.83,148.6h2.319Z" transform="translate(-33.802 -77.329)" fill="#967444"/>
    <path id="Path_12" data-name="Path 12" d="M88.415,150.422V144.95h2.193a1.648,1.648,0,1,1,0,3.294H89.091v2.174H88.41Zm3.2-3.825a1.015,1.015,0,0,0-1.087-1.04H89.1v2.085h1.432a1.015,1.015,0,0,0,1.087-1.04Z" transform="translate(-47.166 -77.329)" fill="#967444"/>
    <rect id="Rectangle_1" data-name="Rectangle 1" width="0.681" height="5.472" transform="translate(51.787 67.621)" fill="#967444"/>
    <path id="Path_13" data-name="Path 13" d="M128.416,150.422v-4.866H126.69v-.606h4.143v.606H129.1v4.866Z" transform="translate(-67.588 -77.329)" fill="#967444"/>
    <path id="Path_14" data-name="Path 14" d="M151.859,150.422l-.485-1.222h-2.72l-.485,1.222h-.779l2.2-5.472h.844l2.2,5.472h-.774Zm-1.843-4.777-1.157,2.953h2.319Z" transform="translate(-78.631 -77.329)" fill="#967444"/>
    <path id="Path_15" data-name="Path 15" d="M172.26,150.422V144.95h.681v4.866h2.538v.606Z" transform="translate(-91.899 -77.329)" fill="#967444"/>
    <path id="Path_16" data-name="Path 16" d="M210.215,150.422V144.95h2.193a1.648,1.648,0,1,1,0,3.294h-1.516v2.174h-.681Zm3.2-3.825a1.014,1.014,0,0,0-1.087-1.04H210.9v2.085h1.432a1.015,1.015,0,0,0,1.087-1.04Z" transform="translate(-112.145 -77.329)" fill="#967444"/>
    <path id="Path_17" data-name="Path 17" d="M234.709,150.422l-.485-1.222H231.5l-.485,1.222h-.779l2.2-5.472h.844l2.2,5.472h-.774Zm-1.843-4.777L231.71,148.6h2.319Z" transform="translate(-122.83 -77.329)" fill="#967444"/>
    <path id="Path_18" data-name="Path 18" d="M258.463,150.422l-1.386-2.174h-1.1v2.174H255.3V144.95h2.193a1.6,1.6,0,0,1,1.721,1.647,1.5,1.5,0,0,1-1.423,1.591l1.474,2.23h-.8Zm.047-3.825a1.017,1.017,0,0,0-1.1-1.04h-1.432v2.09h1.432a1.027,1.027,0,0,0,1.1-1.05" transform="translate(-136.2 -77.329)" fill="#967444"/>
    <path id="Path_19" data-name="Path 19" d="M279.026,150.422v-4.866H277.3v-.606h4.143v.606h-1.735v4.866Z" transform="translate(-147.936 -77.329)" fill="#967444"/>
    <path id="Path_20" data-name="Path 20" d="M304.257,150.422l-3.186-4.362v4.362h-.681V144.95h.7l3.144,4.273V144.95h.681v5.472Z" transform="translate(-160.255 -77.329)" fill="#967444"/>
    <path id="Path_21" data-name="Path 21" d="M325.11,150.422V144.95h3.578v.606h-2.9v1.763h2.841v.606h-2.841v1.885h2.9v.606H325.11Z" transform="translate(-173.443 -77.329)" fill="#967444"/>
    <path id="Path_22" data-name="Path 22" d="M350.543,150.422l-1.386-2.174h-1.1v2.174h-.681V144.95h2.193a1.6,1.6,0,0,1,1.721,1.647,1.5,1.5,0,0,1-1.423,1.591l1.474,2.23h-.8Zm.051-3.825a1.017,1.017,0,0,0-1.1-1.04h-1.432v2.09H349.5a1.027,1.027,0,0,0,1.1-1.05" transform="translate(-185.323 -77.329)" fill="#967444"/>
    <path id="Path_23" data-name="Path 23" d="M369.66,149.541l.411-.527a2.256,2.256,0,0,0,1.712.788c.975,0,1.288-.527,1.288-.952,0-1.409-3.233-.625-3.233-2.575,0-.9.8-1.525,1.885-1.525a2.574,2.574,0,0,1,1.931.77l-.411.5a2.073,2.073,0,0,0-1.581-.658c-.648,0-1.124.355-1.124.868,0,1.232,3.233.527,3.233,2.566,0,.788-.541,1.609-2.015,1.609a2.706,2.706,0,0,1-2.095-.868Z" transform="translate(-197.209 -77.223)" fill="#967444"/>
    <path id="Path_24" data-name="Path 24" d="M206.342,8.444l-2.459-1.3H189.445c.014-2.608,1.19-4.875,2.589-7.147h-3.443a13.22,13.22,0,0,0-2.486,7.138h-7.581c.019-2.6,1.19-4.87,2.589-7.138h-3.443a13.282,13.282,0,0,0-2.486,7.133H163.75V9.8H175.4a13.454,13.454,0,0,0,2.958,5.985c3.1,4.021,2.067,8.976-.69,12.689h3.443c2.407-3.406,3.783-7.735,1.721-11.761-.938-2.528-3-4.3-3.9-6.914h7.376a13.454,13.454,0,0,0,2.958,5.985c3.1,4.021,2.067,8.976-.69,12.689h3.443c2.407-3.406,3.783-7.735,1.721-11.761-.938-2.528-3-4.3-3.9-6.914h13.991l2.486-1.353Z" transform="translate(-87.359)" fill="#967444"/>
  </g>
</svg>
